<?xml version="1.0" encoding="UTF-8"?>
<svg xmlns="http://www.w3.org/2000/svg" viewBox="1250 1050 2500 2700">
  <g>
    <path d="M1619.05,2034.01c186.02-78.8,230.72-145.53,262.53-221.88,63.08,99.33,124.34,195.79,185.63,292.32-19.83-69.27-39.66-138.54-59.5-207.81,87.53,125.17,175.06,250.34,262.6,375.51l-72.1-220.12,352.56,431.36c-24.66-56.07-49.12-111.69-75.41-171.45,48.72,50.56,95.33,98.94,142.1,147.47-37.08,37.22-72.37,72.64-109.51,109.92,78.05,43.06,154.49,85.24,233.57,128.88,29.53-51.14,59.26-102.61,89.6-155.13,6.02,2.53,11.67,4.42,16.87,7.18,57.09,30.26,113.99,60.88,171.24,90.83,11.94,6.25,17.74,13.7,19.11,27.96,6.54,68.2,14.54,136.26,22.27,206.63,130.66-4.38,260.65.73,392.23,32.01-42.71,9.48-82.13,18.22-123.06,27.31,100.18,18.96,198.9,37.65,297.77,56.37-39.89,2.21-76.92,4.27-122.22,6.78,43.14,17,82.09,32.35,125.04,49.27-20.98,30.91-39.45,58.13-56.38,83.07,46.96-9.78,93.47-64.96,97.46-118.06,3.77-50.08-10.93-94.08-41.95-132.89-53.51-66.96-122.05-116.36-193.92-160.85-68.19-42.22-138.6-80.85-207.89-121.31-5.64-3.29-12.23-7.49-14.85-12.96-11.01-22.97-20.68-46.58-32.98-74.88,35.17,16.51,66.13,29.88,96.04,45.31,112.01,57.77,220.96,120.55,319.11,200.41,52.68,42.86,100.52,89.78,127.92,153.76,43.71,102.09,10.71,210.64-81.86,272.51-53.98,36.08-115.58,51.55-177.19,64.87-182.71,39.5-555.1,113.67-555.1,113.67,0,0-40.85-92.08-61.59-138.55-8.87-19.88-18.66-39.38-26.78-59.55-4.92-12.22-11.45-15.32-24.61-13.19-92.63,15-185.24,30.32-278.19,43.13-69.37,9.56-139.2,15.96-208.92,22.8-17.89,1.75-38.6,5.06-50.49-13.37-12.11-18.76,1.48-35.17,9.87-51,22.21-41.89,56.9-69.28,104.04-73.33,82.45-7.09,137.31-47.57,169.16-123.49,12.98-30.93,39.1-48.53,73.91-49.2,35.01-.67,56.21,20.2,72.17,48.41,2.01,3.55,4,7.12,5.96,10.7,19.13,34.94,27.37,39.53,66.28,35.35,18.25-1.96,36.5-4.24,54.55-7.51,14.65-2.66,22.68.24,24.56,16.99,10.17,90.68,55.48,164.71,116.3,238.17-22.42-93.59-43.48-181.54-64.92-271.08,49.64-8.22,97.28-16.11,145.06-24.02-46.18-19.66-91.34-42.08-138.38-59.41-82.94-30.55-166.09-60.94-250.55-86.88-108.95-33.46-200.78-90.75-277.79-175.03-75.25-82.36-154.37-161.18-231.64-241.7-101.04-105.27-221.59-183.91-347.48-255.35-47.92-27.19-95.65-54.71-143.4-82.18-8.12-4.67-15.91-9.9-26.85-16.75Z"/>
    <path d="M2816.8,1888.89c23.29-31.72,43.17-66.04,62.96-100.14,4.67-8.04,5.67-20.65,3.35-29.9-17.36-69.24-38.18-137.68-53.13-207.4-6.16-28.73-.55-59.98-.28-91.26-7.76.43-21.58.88-35.34,2.01-18.57,1.52-29.97-6.93-34.84-24.39-7.86-28.17-14.6-56.69-23.45-84.54-3.22-10.14-11.73-18.49-16.69-28.23-2.41-4.73-3.96-11.19-2.83-16.18,2.69-11.89,9.14-23.15,10.46-35.06,1.41-12.74-1-25.97-2.34-38.92-1.1-10.62-4.58-21.18-4.37-31.72.41-20.34,2.67-40.64-.53-63.07-6.85,12.01-13.7,24.02-20.15,35.32-34.11-55.93-7.9-119.21,62.93-145.55-1.57-4.51-3.15-9.05-4.94-14.2,2.03-.86,3.67-1.9,5.44-2.24,38.67-7.57,77.15-16.39,116.08-22.24,48.75-7.32,95.13-1.67,133.78,33.55,3.1,2.82,8.51,4.25,12.89,4.34,29.04.65,47.95,16.22,61.73,40.22,29.42,51.2,31.74,106.34,21.65,162.4-5.02,27.91-13.42,55.42-22.68,82.29-9.26,26.86-21.5,52.69-35.48,78.9-2.79-36.52-30.12-70.09-8.33-109.25,5.53-9.94,8.06-23.92,6.02-34.94-.74-3.99-3.48-7.61-6.87-11.11-6.94-7.16-18.3-7.63-25.91-1.18-3.45,2.93-6.37,6.05-7.76,9.75-8.12,21.55-14.05,43.93-20.56,66.74-1.68,5.89,2.75,11.76,8.88,11.76h17.19c-3.06,55.41,9.37,108.12,23.1,160.75,2.41,9.25,3.23,20.06.99,29.21-51.42,209.84-138.84,403.06-267.77,576.99-18.98,25.6-37.55,51.51-57.04,78.29,31.1,14.18,56.92,19.18,88.09-4.01,67.6-50.29,219.86-144.64,219.86-144.64,0,0-45.71,62.76-68.56,94.15,79.79-55.86,159.59-111.73,239.38-167.59-22.55,45.79-45,91.36-69.35,140.8,47.39-32.19,91.17-61.93,135.14-91.79-24.68,122.67-64.43,241.37-96.85,363.4-35.14-11.22-68.15-21.4-100.8-32.6-4.85-1.66-9.09-7.58-11.82-12.52-37.73-68.31-124.51-91.93-192.47-52.72-5.39,3.11-14.1,3.63-20.24,1.83-75.69-22.14-151.05-45.43-226.81-67.36-39.47-11.43-67.99-39.17-98.9-63.35-3.6-2.82-3.58-12.29-2.79-18.36,7.07-53.95,13.78-107.98,22.42-161.69,8.7-54.11-10.61-96.66-55.19-124.48-61.65-38.46-124.77-75.05-189.57-107.88-108.8-55.11-221.72-100.62-340.46-130.32-2.59-.65-4.96-2.12-7.76-3.35,0-48.39-.43-96.68.28-144.96.2-13.49-3.41-22.87-14.49-31.15-50.17-37.45-100.14-75.18-149.45-113.76-17.34-13.57-34.21-16.13-54.9-9.25-34.79,11.58-70.8,14.92-106.63,5.63-14.85-3.85-30.7-9.54-42.13-19.12-9.2-7.72-17.26-22.59-17.16-34.21.13-16.3-5.95-24.02-18.08-32.32-17.34-11.87-33.72-25.35-49.35-39.44-6.76-6.09-11.66-14.91-15.58-23.35-10.14-21.84,3.29-43.59,30.57-36.39,52.51,13.87,106.25,23.03,159.24,35.15,15.1,3.45,29.63,9.82,44.03,15.77,83.96,34.71,167.8,69.7,254.51,105.77,1.11-14.33,1.87-24.16,2.85-36.76,18.15,6.99,35.4,12.59,51.53,20.48,4.98,2.44,9.28,10.89,9.87,16.97,5.67,58.24,10.21,116.59,15.82,174.84.78,8.13,3.31,18.36,8.86,23.39,45.11,40.93,91.13,80.84,136.06,120.36-15.44-71.5-31.14-144.23-46.83-216.9,64.5,89.66,128.88,179.16,196.38,273-7.01-59.67-13.46-114.68-19.96-169.99,62.94,88.03,125.89,176.05,188.83,264.08-12.23-86.21-24.45-172.27-37.38-263.43,8.57,10.57,14.67,18.08,20.76,25.6,4.29,5.29,8.09,11.06,12.92,15.8,55.74,54.73,84.93,120.49,95.32,198.56,12.3,92.45,30.43,183.98,21.03,277.9-1.01,10.06-2.36,20.09-3.98,33.73,39.52-36.3,76.84-70.58,118.6-108.93-34.07,77.67-64.63,147.34-95.83,218.48,61.45-81.48,124.4-161.85,184.8-244.1Z"/>
    <path d="M1632.57,1957.95c7.79-48.47,15.77-93.91,21.88-139.6,1.22-9.11-1.73-22.06-7.83-28.28-21.37-21.81-44.93-41.48-67.71-61.9-16.66-14.93-34.26-17.9-56.39-10.44-20.18,6.8-42.58,11.79-63.56,10.49-53.5-3.33-84.88-39.75-84.32-93.25.23-21.74,2.81-43.49,2.34-65.2-.84-38.33-16.37-71.8-41.02-100.07-30.56-35.05-55.23-71.82-60.57-119.8-1.99-17.84-12.02-34.64-15.84-52.46-3.99-18.61-.87-36.99,14.35-50.55,15.6-13.89,36.42-14.68,57.7,3.45,29.91,25.48,58.33,53.13,84.66,82.32,67.41,74.71,131.61,152.38,200.55,225.62,32.28,34.29,72.54,61.07,110.69,92.48,19.96-36.44,37.81-69.02,55.81-101.89,34.63,36.75,53.44,149.1,40.2,216.32-20.76,105.43-95.94,155.73-190.94,192.76Z"/>
    <path d="M3471.16,2141.36c17.64,5.05,37.69,11.54,58.11,16.47,29.8,7.2,50.02-4.84,54.48-35.75,7-48.45,1.9-97.25-27.81-136.75-39.55-52.58-84.38-101.21-127.55-151.02-18.71-21.58-40-40.95-58.26-62.87-63.96-76.74-248.33-194.42-248.75-195.36,101.56,10.86,191.89,45.14,262.56,123.1,61.69,68.04,125.71,133.96,187.67,201.76,53.27,58.29,85.67,126.38,82.77,206.76-2.13,59.02-23.81,108.84-82.08,134.89-28.92,12.92-58.82,9.25-88.23,2.85-37.85-8.23-75.22-18.64-113.09-26.76-12.5-2.68-18.6-8.59-21.89-20.27-14.89-53.03-29.66-106.1-45.73-158.77-4.21-13.78-11.53-27.16-19.81-39.06-39.57-56.93-97.03-94.78-149.65-137.63-57.07-46.48-56.63-46.99-25.95-112.88,14.3-30.7,31.95-45.04,67.8-44.19,58.71,1.39,61.14.3,83.68,56.02,10.45,25.83,19.09,52.55,31.67,77.28,7.6,14.95,18.9,30.22,32.53,39.44,29.74,20.14,62.22,36.21,93.14,54.69,6.33,3.78,14.09,10.11,15.46,16.5,13.41,62.38,25.6,125.02,38.94,191.57Z"/>
    <path d="M2721.18,2640.82c-45.68-25.32-91.34-50.63-142.36-78.91,92.43-84.78,180.08-170.21,273.33-249,64.51-54.5,125.16-39.85,176.62,27.09,64.91,84.46,111.17,178.64,151.82,276.12,29.5,70.73,58.38,141.72,88.73,215.52-30.38,0-57.2-.24-84.02.08-20.4.24-40.88.32-61.17,2.13-15.34,1.37-18.87-4.66-20.88-19.06-9.94-71.31-19.06-142.87-33-213.45-12.91-65.36-32.64-129.17-64.62-188.44-6.01-11.15-10.8-17.61-26.31-13.38-27.09,7.38-50.3-4.22-78.92-34.75-76.67,81.11-122.14,182.23-179.23,276.05Z"/>
    <path d="M2358.73,1351.23c61.14,18.31,122.33,36.47,183.6,54.35,61.04,17.81,158.92,98.78,160.73,103.04-36.35-10.85-70.54-21.29-104.87-31.25-47.62-13.81-94.82-29.62-143.14-40.35-91.15-20.25-168.52-71.07-251.59-109.2-38.83-17.83-75.92-39.45-114.47-57.89,89.92,27.08,179.78,54.36,269.74,81.3Z"/>
    <path d="M2748.37,2342.61c-25.33,21.26-46.1,38.69-64.91,54.48-62.63-58.23-124.44-115.69-186.36-173.27,82.73,39.11,164.89,77.95,251.28,118.79Z"/>
    <path d="M1906.52,1700.19c-12.65-8.11-19.25-17.31-18.88-32.64.26-10.68-2.28-21.43-4.13-36.76,108.38,88.72,213.19,174.53,318.62,260.84-98.58-63.74-196.79-128.07-295.61-191.44Z"/>
    <path d="M2887.41,2450.93c6.73-10.59,12.42-19.55,17.24-27.13,21.63,6.05,42.36,11.35,62.69,17.89,4.76,1.53,10.17,6.49,11.87,11.12,5.27,14.39,8.89,29.39,13.9,46.75-36.49-16.79-70.94-32.64-105.69-48.63Z"/>
  </g>
</svg>
